<?xml version="1.0" encoding="UTF-8" standalone="no"?>
<!-- Created with Inkscape (http://www.inkscape.org/) -->

<svg
   version="1.1"
   id="svg2"
   width="3779.5332"
   height="3779.5332"
   viewBox="0 0 3779.5332 3779.5332"
   sodipodi:docname="LOGO ODEME OFICIAL.ai"
   xmlns:inkscape="http://www.inkscape.org/namespaces/inkscape"
   xmlns:sodipodi="http://sodipodi.sourceforge.net/DTD/sodipodi-0.dtd"
   xmlns="http://www.w3.org/2000/svg"
   xmlns:svg="http://www.w3.org/2000/svg">
  <defs
     id="defs6">
    <linearGradient
       x1="0"
       y1="0"
       x2="1"
       y2="0"
       gradientUnits="userSpaceOnUse"
       gradientTransform="matrix(43.108315,0,0,-43.108315,673.88959,1613.2087)"
       spreadMethod="pad"
       id="linearGradient26">
      <stop
         style="stop-opacity:1;stop-color:#002357"
         offset="0"
         id="stop22" />
      <stop
         style="stop-opacity:1;stop-color:#002334"
         offset="1"
         id="stop24" />
    </linearGradient>
    <linearGradient
       x1="0"
       y1="0"
       x2="1"
       y2="0"
       gradientUnits="userSpaceOnUse"
       gradientTransform="matrix(43.108315,0,0,-43.108315,796.40796,1613.2087)"
       spreadMethod="pad"
       id="linearGradient46">
      <stop
         style="stop-opacity:1;stop-color:#002357"
         offset="0"
         id="stop42" />
      <stop
         style="stop-opacity:1;stop-color:#002334"
         offset="1"
         id="stop44" />
    </linearGradient>
    <linearGradient
       x1="0"
       y1="0"
       x2="1"
       y2="0"
       gradientUnits="userSpaceOnUse"
       gradientTransform="matrix(43.108315,0,0,-43.108315,735.14874,1579.1758)"
       spreadMethod="pad"
       id="linearGradient66">
      <stop
         style="stop-opacity:1;stop-color:#002357"
         offset="0"
         id="stop62" />
      <stop
         style="stop-opacity:1;stop-color:#002334"
         offset="1"
         id="stop64" />
    </linearGradient>
    <linearGradient
       x1="0"
       y1="0"
       x2="1"
       y2="0"
       gradientUnits="userSpaceOnUse"
       gradientTransform="matrix(636.67877,0,0,-636.67877,219.01077,1237.498)"
       spreadMethod="pad"
       id="linearGradient86">
      <stop
         style="stop-opacity:1;stop-color:#002357"
         offset="0"
         id="stop82" />
      <stop
         style="stop-opacity:1;stop-color:#002334"
         offset="1"
         id="stop84" />
    </linearGradient>
    <linearGradient
       x1="0"
       y1="0"
       x2="1"
       y2="0"
       gradientUnits="userSpaceOnUse"
       gradientTransform="matrix(43.108315,0,0,-43.108315,357.70242,1221.4369)"
       spreadMethod="pad"
       id="linearGradient106">
      <stop
         style="stop-opacity:1;stop-color:#f38030"
         offset="0"
         id="stop102" />
      <stop
         style="stop-opacity:1;stop-color:#db272d"
         offset="1"
         id="stop104" />
    </linearGradient>
    <linearGradient
       x1="0"
       y1="0"
       x2="1"
       y2="0"
       gradientUnits="userSpaceOnUse"
       gradientTransform="matrix(43.108315,0,0,-43.108315,235.18405,1221.4369)"
       spreadMethod="pad"
       id="linearGradient126">
      <stop
         style="stop-opacity:1;stop-color:#f38030"
         offset="0"
         id="stop122" />
      <stop
         style="stop-opacity:1;stop-color:#db272d"
         offset="1"
         id="stop124" />
    </linearGradient>
    <linearGradient
       x1="0"
       y1="0"
       x2="1"
       y2="0"
       gradientUnits="userSpaceOnUse"
       gradientTransform="matrix(43.108315,0,0,-43.108315,296.44324,1255.4698)"
       spreadMethod="pad"
       id="linearGradient146">
      <stop
         style="stop-opacity:1;stop-color:#f38030"
         offset="0"
         id="stop142" />
      <stop
         style="stop-opacity:1;stop-color:#db272d"
         offset="1"
         id="stop144" />
    </linearGradient>
    <linearGradient
       x1="0"
       y1="0"
       x2="1"
       y2="0"
       gradientUnits="userSpaceOnUse"
       gradientTransform="matrix(636.67877,0,0,-636.67877,219.01077,1597.1477)"
       spreadMethod="pad"
       id="linearGradient166">
      <stop
         style="stop-opacity:1;stop-color:#f38030"
         offset="0"
         id="stop162" />
      <stop
         style="stop-opacity:1;stop-color:#db272d"
         offset="1"
         id="stop164" />
    </linearGradient>
    <clipPath
       clipPathUnits="userSpaceOnUse"
       id="clipPath176">
      <path
         d="M 0,2834.646 H 2834.646 V 0 H 0 Z"
         id="path174" />
    </clipPath>
    <clipPath
       clipPathUnits="userSpaceOnUse"
       id="clipPath204">
      <path
         d="M 0,2834.646 H 2834.646 V 0 H 0 Z"
         id="path202" />
    </clipPath>
  </defs>
  <sodipodi:namedview
     id="namedview4"
     pagecolor="#ffffff"
     bordercolor="#000000"
     borderopacity="0.25"
     inkscape:showpageshadow="2"
     inkscape:pageopacity="0.0"
     inkscape:pagecheckerboard="0"
     inkscape:deskcolor="#d1d1d1" />
  <g
     id="g8"
     inkscape:groupmode="layer"
     inkscape:label="LOGO ODEME OFICIAL"
     transform="matrix(1.3333333,0,0,-1.3333333,0,3779.5333)">
    <g
       id="g10">
      <g
         id="g12">
        <g
           id="g18">
          <g
             id="g20">
            <path
               d="m 673.889,1531.53 h 43.109 v 120.249 c 0,23.809 -19.3,43.109 -43.109,43.109 v 0 z"
               style="fill:url(#linearGradient26);stroke:none"
               id="path28" />
          </g>
        </g>
      </g>
    </g>
    <g
       id="g30">
      <g
         id="g32">
        <g
           id="g38">
          <g
             id="g40">
            <path
               d="M 796.407,1694.888 V 1531.53 h 43.109 v 120.249 c 0,23.809 -19.3,43.109 -43.108,43.109 v 0 z"
               style="fill:url(#linearGradient46);stroke:none"
               id="path48" />
          </g>
        </g>
      </g>
    </g>
    <g
       id="g50">
      <g
         id="g52">
        <g
           id="g58">
          <g
             id="g60">
            <path
               d="m 735.149,1497.496 h 43.108 v 120.25 c 0,23.808 -19.3,43.109 -43.108,43.109 v 0 z"
               style="fill:url(#linearGradient66);stroke:none"
               id="path68" />
          </g>
        </g>
      </g>
    </g>
    <g
       id="g70">
      <g
         id="g72">
        <g
           id="g78">
          <g
             id="g80">
            <path
               d="m 641.34,1491.386 c 16.571,-220.09 -82.908,-357.017 -82.908,-357.017 v 0 C 415.574,928.743 219.01,1085.857 219.01,1085.857 v 0 c 98.032,-85.593 205.359,-104.058 205.359,-104.058 v 0 c 192.497,-25.38 308.912,158.877 332.076,199.486 v 0 c 3.156,5.532 6.392,11.012 9.678,16.46 v 0 c 69.355,115.018 89.566,297.841 89.566,297.841 v 0 c -110.609,-83.375 -214.349,-4.2 -214.349,-4.2"
               style="fill:url(#linearGradient86);stroke:none"
               id="path88" />
          </g>
        </g>
      </g>
    </g>
    <g
       id="g90">
      <g
         id="g92">
        <g
           id="g98">
          <g
             id="g100">
            <path
               d="m 357.702,1303.115 v -120.249 c 0,-23.808 19.301,-43.108 43.108,-43.108 v 0 163.357 z"
               style="fill:url(#linearGradient106);stroke:none"
               id="path108" />
          </g>
        </g>
      </g>
    </g>
    <g
       id="g110">
      <g
         id="g112">
        <g
           id="g118">
          <g
             id="g120">
            <path
               d="m 235.184,1303.115 v -120.249 c 0,-23.808 19.3,-43.108 43.109,-43.108 v 0 163.357 z"
               style="fill:url(#linearGradient126);stroke:none"
               id="path128" />
          </g>
        </g>
      </g>
    </g>
    <g
       id="g130">
      <g
         id="g132">
        <g
           id="g138">
          <g
             id="g140">
            <path
               d="M 296.444,1337.149 V 1216.9 c 0,-23.809 19.299,-43.109 43.107,-43.109 v 0 h 0.001 v 163.358 z"
               style="fill:url(#linearGradient146);stroke:none"
               id="path148" />
          </g>
        </g>
      </g>
    </g>
    <g
       id="g150">
      <g
         id="g152">
        <g
           id="g158">
          <g
             id="g160">
            <path
               d="m 318.255,1653.36 c -3.155,-5.532 -6.392,-11.011 -9.678,-16.46 v 0 C 239.222,1521.882 219.01,1339.06 219.01,1339.06 v 0 c 110.61,83.375 214.35,4.199 214.35,4.199 v 0 c -16.571,220.09 82.908,357.018 82.908,357.018 v 0 c 142.859,205.625 339.421,48.51 339.421,48.51 v 0 c -98.031,85.593 -205.358,104.059 -205.358,104.059 v 0 c -12.325,1.625 -24.314,2.391 -36.011,2.39 v 0 C 443.332,1855.221 339.936,1691.37 318.255,1653.36"
               style="fill:url(#linearGradient166);stroke:none"
               id="path168" />
          </g>
        </g>
      </g>
    </g>
    <g
       id="g170">
      <g
         id="g172"
         clip-path="url(#clipPath176)">
        <g
           id="g178"
           transform="translate(1143.3726,1410.42)">
          <path
             d="m 0,0 c 11.087,13.086 16.631,30.72 16.631,52.894 0,22.478 -5.544,40.263 -16.631,53.357 -11.087,13.086 -26.793,19.634 -47.12,19.634 -20.637,0 -36.495,-6.548 -47.582,-19.634 -11.087,-13.094 -16.631,-30.879 -16.631,-53.357 0,-22.174 5.544,-39.808 16.631,-52.894 11.087,-13.095 26.945,-19.634 47.582,-19.634 20.327,0 36.033,6.539 47.12,19.634 m -131.89,-93.548 c -25.718,14.473 -46.125,34.488 -61.21,60.056 -15.093,25.558 -22.636,54.352 -22.636,86.386 0,32.027 7.543,60.82 22.636,86.387 15.085,25.56 35.492,45.504 61.21,59.824 25.711,14.321 53.97,21.482 84.77,21.482 30.792,0 58.973,-7.161 84.539,-21.482 25.56,-14.32 45.807,-34.264 60.748,-59.824 14.935,-25.567 22.405,-54.36 22.405,-86.387 0,-32.034 -7.47,-60.828 -22.405,-86.386 C 83.226,-59.06 62.899,-79.075 37.188,-93.548 11.47,-108.027 -16.63,-115.26 -47.12,-115.26 c -30.8,0 -59.059,7.233 -84.77,21.712"
             style="fill:#002334;fill-opacity:1;fill-rule:nonzero;stroke:none"
             id="path180" />
        </g>
        <g
           id="g182"
           transform="translate(1482.9121,1408.8029)">
          <path
             d="m 0,0 c 13.55,12.625 20.327,30.641 20.327,54.049 0,23.402 -6.777,41.418 -20.327,54.05 -13.555,12.625 -31.874,18.941 -54.973,18.941 H -79.457 V -18.94 h 24.484 c 23.099,0 41.418,6.308 54.973,18.94 m 44.118,195.872 c 25.712,-13.858 45.503,-33.11 59.362,-57.745 13.86,-24.643 20.789,-52.664 20.789,-84.078 0,-31.11 -6.929,-59.131 -20.789,-84.077 -13.859,-24.946 -33.65,-44.579 -59.362,-58.9 -25.718,-14.321 -55.666,-21.481 -89.851,-21.481 h -136.279 v 327.07 h 136.279 c 34.185,0 64.133,-6.93 89.851,-20.789"
             style="fill:#002334;fill-opacity:1;fill-rule:nonzero;stroke:none"
             id="path184" />
        </g>
        <g
           id="g186"
           transform="translate(2351.3984,1625.4635)">
          <path
             d="m 0,0 v -327.07 h -102.095 v 163.073 l -50.353,-163.073 h -87.774 l -50.353,163.073 V -327.07 H -393.131 V 0 h 125.654 L -195.411,-196.334 -125.191,0 Z"
             style="fill:#002334;fill-opacity:1;fill-rule:nonzero;stroke:none"
             id="path188" />
        </g>
        <g
           id="g190"
           transform="translate(2500.1445,1543.6959)">
          <path
             d="m 0,0 v -40.19 h 101.633 v -77.149 H 0 v -46.196 h 115.49 v -81.767 H -102.555 V 81.768 H 115.49 V 0 Z"
             style="fill:#002334;fill-opacity:1;fill-rule:nonzero;stroke:none"
             id="path192" />
        </g>
      </g>
    </g>
    <text
       xml:space="preserve"
       transform="matrix(1,0,0,-1,954.2422,1098.6475)"
       style="font-variant:normal;font-weight:900;font-stretch:normal;font-size:173.787px;font-family:'Poppins Black';-inkscape-font-specification:Poppins-Black;writing-mode:lr-tb;fill:#f38030;fill-opacity:1;fill-rule:nonzero;stroke:none"
       id="text196"><tspan
         x="0 96.62574 227.48758 364.43198 499.81229 636.75665 802.02838 857.98792 992.3255 1021.8693 1158.8137 1294.194 1382.1304 1438.09 1573.4702"
         y="0"
         sodipodi:role="line"
         id="tspan194">ECONOMÍA ONLINE</tspan></text>
    <g
       id="g198">
      <g
         id="g200"
         clip-path="url(#clipPath204)">
        <g
           id="g206"
           transform="translate(1635.5391,1616.3937)">
          <path
             d="m 0,0 h 289.462 c 0,-42.187 -34.199,-76.386 -76.386,-76.386 H 0 Z"
             style="fill:#002334;fill-opacity:1;fill-rule:nonzero;stroke:none"
             id="path208" />
        </g>
        <g
           id="g210"
           transform="translate(1635.5391,1399.298)">
          <path
             d="m 0,0 h 289.462 v -0.001 c 0,-42.187 -34.199,-76.386 -76.386,-76.386 H 0 Z"
             style="fill:#002334;fill-opacity:1;fill-rule:nonzero;stroke:none"
             id="path212" />
        </g>
        <g
           id="g214"
           transform="translate(1635.542,1498.9962)">
          <path
             d="m 0,0 h 255.943 c 0,-37.302 -30.239,-67.541 -67.541,-67.541 H 0 Z"
             style="fill:#002334;fill-opacity:1;fill-rule:nonzero;stroke:none"
             id="path216" />
        </g>
      </g>
    </g>
  </g>
</svg>
